<svg width="37" height="37" viewBox="0 0 37 37" fill="none" xmlns="http://www.w3.org/2000/svg">
<path d="M6.42008 18.5001C6.42008 25.1799 11.8202 30.5801 18.5001 30.5801C25.1799 30.5801 30.5801 25.1799 30.5801 18.5001C30.5801 11.8202 25.1799 6.42008 18.5001 6.42008C11.8202 6.42008 6.42008 11.8202 6.42008 18.5001ZM30.1001 18.5001C30.1001 24.9182 24.9182 30.1001 18.5001 30.1001C12.0819 30.1001 6.90008 24.9182 6.90008 18.5001C6.90008 12.0819 12.0819 6.90008 18.5001 6.90008C24.9182 6.90008 30.1001 12.0819 30.1001 18.5001Z" fill="#00BD8E" stroke="#20F0BC"/>
<path d="M24.2038 16.7422C22.7793 14.5037 20.695 13.2148 18.4997 13.2148C17.402 13.2148 16.3352 13.5355 15.3608 14.1337C14.3865 14.738 13.5108 15.6198 12.7955 16.7422C12.1788 17.7103 12.1788 19.2828 12.7955 20.251C14.22 22.4957 16.3043 23.7783 18.4997 23.7783C19.5973 23.7783 20.6642 23.4577 21.6385 22.8595C22.6128 22.2552 23.4885 21.3733 24.2038 20.251C24.8205 19.289 24.8205 17.7103 24.2038 16.7422ZM18.4997 20.991C17.1183 20.991 16.0083 19.8748 16.0083 18.4997C16.0083 17.1245 17.1183 16.0083 18.4997 16.0083C19.881 16.0083 20.991 17.1245 20.991 18.4997C20.991 19.8748 19.881 20.991 18.4997 20.991Z" fill="#20F0BC"/>
<path d="M18.4987 16.7363C17.5305 16.7363 16.7412 17.5257 16.7412 18.5C16.7412 19.4682 17.5305 20.2575 18.4987 20.2575C19.4669 20.2575 20.2624 19.4682 20.2624 18.5C20.2624 17.5318 19.4669 16.7363 18.4987 16.7363Z" fill="#20F0BC"/>
</svg>
