<svg width="50" height="50" viewBox="0 0 50 50" fill="none" xmlns="http://www.w3.org/2000/svg">
<path d="M8.5 25C8.5 34.1239 15.8761 41.5 25 41.5C34.1239 41.5 41.5 34.1239 41.5 25C41.5 15.8761 34.1239 8.5 25 8.5C15.8761 8.5 8.5 15.8761 8.5 25ZM40.5 25C40.5 33.5761 33.5761 40.5 25 40.5C16.4239 40.5 9.5 33.5761 9.5 25C9.5 16.4239 16.4239 9.5 25 9.5C33.5761 9.5 40.5 16.4239 40.5 25Z" stroke="#C83B93"/>
<path fill-rule="evenodd" clip-rule="evenodd" d="M30.5366 16.999C31.0941 17.0014 31.6283 17.2227 32.0241 17.6153C32.8062 18.3778 32.8828 19.6092 32.2012 20.4628L26.7754 27.0928L26.7045 27.1707C26.1436 27.7372 25.3767 28.0517 24.5795 28.0419C24.2709 28.0332 23.9653 27.9782 23.6729 27.879C23.8856 28.2755 23.9975 28.7182 23.9987 29.1682C23.9987 29.9196 23.7002 30.6403 23.1688 31.1717C22.6375 31.703 21.9168 32.0015 21.1654 32.0015H19.3945C18.8077 32.0015 18.332 31.5258 18.332 30.939V29.1682C18.332 27.6034 19.6006 26.3349 21.1654 26.3349C21.4347 26.3369 21.7022 26.3799 21.9587 26.4624C21.3356 25.314 21.5495 23.8916 22.4829 22.9774L22.5679 22.9065L29.1979 17.4807C29.5755 17.1711 30.0483 17.001 30.5366 16.999ZM24.792 25.6336L26.917 23.5086C27.1121 23.2993 27.1063 22.9731 26.904 22.7708C26.7017 22.5685 26.3755 22.5627 26.1662 22.7578L24.0412 24.8828C23.834 25.0902 23.834 25.4262 24.0412 25.6336C24.1403 25.7339 24.2756 25.7901 24.4166 25.7894C24.5581 25.7926 24.6944 25.7361 24.792 25.6336Z" fill="#C83B93"/>
</svg>
