<svg width="40" height="41" viewBox="0 0 40 41" fill="none" xmlns="http://www.w3.org/2000/svg">
<rect width="40" height="40" rx="20" fill="#C83B93"/>
<path d="M25.68 16.1085L26.143 15.6445C26.5116 15.2757 27.0117 15.0685 27.5331 15.0684C28.0546 15.0683 28.5547 15.2753 28.9235 15.644C29.2923 16.0126 29.4995 16.5127 29.4996 17.0341C29.4997 17.5556 29.2926 18.0557 28.924 18.4245L28.461 18.8885M25.68 16.1085C25.68 16.1085 25.738 17.0925 26.607 17.9615C27.476 18.8305 28.461 18.8885 28.461 18.8885M25.68 16.1085L21.42 20.3685C21.13 20.6565 20.986 20.8015 20.862 20.9605C20.716 21.1485 20.591 21.3505 20.488 21.5665C20.401 21.7485 20.337 21.9415 20.208 22.3285L19.795 23.5685L19.661 23.9695M28.461 18.8885L24.201 23.1485C23.911 23.4385 23.767 23.5825 23.608 23.7065C23.42 23.8525 23.218 23.9775 23.002 24.0805C22.82 24.1675 22.627 24.2315 22.24 24.3605L21 24.7735L20.599 24.9075M19.661 23.9695L19.528 24.3715C19.497 24.4648 19.4926 24.5649 19.5152 24.6605C19.5379 24.7562 19.5867 24.8437 19.6562 24.9132C19.7257 24.9828 19.8132 25.0316 19.9089 25.0542C20.0046 25.0769 20.1047 25.0724 20.198 25.0415L20.599 24.9075M19.661 23.9695L20.599 24.9075" stroke="white" stroke-width="1.5"/>
<path d="M15.5 21.0684H18M15.5 17.0684H22M15.5 25.0684H17M27.328 11.2404C26.157 10.0684 24.271 10.0684 20.5 10.0684H18.5C14.729 10.0684 12.843 10.0684 11.672 11.2404C10.5 12.4114 10.5 14.2974 10.5 18.0684V22.0684C10.5 25.8394 10.5 27.7254 11.672 28.8964C12.843 30.0684 14.729 30.0684 18.5 30.0684H20.5C24.271 30.0684 26.157 30.0684 27.328 28.8964C28.272 27.9534 28.455 26.5484 28.491 24.0684" stroke="white" stroke-width="1.5" stroke-linecap="round"/>
</svg>
