<svg width="30" height="30" viewBox="0 0 30 30" fill="none" xmlns="http://www.w3.org/2000/svg">
<rect x="0.5" y="0.5" width="29" height="29" rx="14.5" fill="black" stroke="black"/>
<path d="M15.8 14.2V11H14.2V14.2H11V15.8H14.2V19H15.8V15.8H19V14.2H15.8ZM15 23C12.8783 23 10.8434 22.1571 9.34315 20.6569C7.84285 19.1566 7 17.1217 7 15C7 12.8783 7.84285 10.8434 9.34315 9.34315C10.8434 7.84285 12.8783 7 15 7C17.1217 7 19.1566 7.84285 20.6569 9.34315C22.1571 10.8434 23 12.8783 23 15C23 17.1217 22.1571 19.1566 20.6569 20.6569C19.1566 22.1571 17.1217 23 15 23Z" fill="white"/>
</svg>
