<svg width="30" height="30" viewBox="0 0 30 30" fill="none" xmlns="http://www.w3.org/2000/svg">
<rect x="0.5" y="0.5" width="29" height="29" rx="14.5" fill="black" stroke="black"/>
<path d="M18.75 8.25H9.75C9.35218 8.25 8.97064 8.40804 8.68934 8.68934C8.40804 8.97064 8.25 9.35218 8.25 9.75V20.25C8.25 20.6478 8.40804 21.0294 8.68934 21.3107C8.97064 21.592 9.35218 21.75 9.75 21.75H20.25C21.075 21.75 21.75 21.075 21.75 20.25V11.25L18.75 8.25ZM15 20.25C13.755 20.25 12.75 19.245 12.75 18C12.75 16.755 13.755 15.75 15 15.75C16.245 15.75 17.25 16.755 17.25 18C17.25 19.245 16.245 20.25 15 20.25ZM17.25 12.75H9.75V9.75H17.25V12.75Z" fill="white"/>
</svg>
