<svg width="30" height="30" viewBox="0 0 30 30" fill="none" xmlns="http://www.w3.org/2000/svg">
<rect x="0.5" y="0.5" width="29" height="29" rx="14.5" fill="black" stroke="black"/>
<path d="M15 17.25C16.2426 17.25 17.25 16.2426 17.25 15C17.25 13.7574 16.2426 12.75 15 12.75C13.7574 12.75 12.75 13.7574 12.75 15C12.75 16.2426 13.7574 17.25 15 17.25Z" fill="white"/>
<path d="M23.4035 14.8088C22.7419 13.0974 21.5934 11.6175 20.0998 10.5518C18.6063 9.48612 16.8332 8.88145 14.9998 8.8125C13.1663 8.88145 11.3932 9.48612 9.89969 10.5518C8.40614 11.6175 7.2576 13.0974 6.59601 14.8088C6.55133 14.9323 6.55133 15.0677 6.59601 15.1912C7.2576 16.9026 8.40614 18.3825 9.89969 19.4482C11.3932 20.5139 13.1663 21.1186 14.9998 21.1875C16.8332 21.1186 18.6063 20.5139 20.0998 19.4482C21.5934 18.3825 22.7419 16.9026 23.4035 15.1912C23.4482 15.0677 23.4482 14.9323 23.4035 14.8088ZM14.9998 18.6562C14.2766 18.6562 13.5697 18.4418 12.9685 18.0401C12.3672 17.6383 11.8986 17.0673 11.6218 16.3992C11.3451 15.7311 11.2727 14.9959 11.4138 14.2867C11.5548 13.5775 11.9031 12.926 12.4144 12.4146C12.9257 11.9033 13.5772 11.5551 14.2865 11.414C14.9957 11.2729 15.7309 11.3453 16.3989 11.6221C17.067 11.8988 17.6381 12.3674 18.0398 12.9687C18.4416 13.57 18.656 14.2769 18.656 15C18.6545 15.9692 18.2688 16.8984 17.5835 17.5837C16.8981 18.2691 15.969 18.6548 14.9998 18.6562Z" fill="white"/>
</svg>
