<svg width="15" height="15" viewBox="0 0 15 15" fill="none" xmlns="http://www.w3.org/2000/svg">
<mask id="path-1-inside-1_2074_32999" fill="white">
<path d="M2.39961 7.49961C2.39961 10.3196 4.67961 12.5996 7.49961 12.5996C10.3196 12.5996 12.5996 10.3196 12.5996 7.49961C12.5996 4.67961 10.3196 2.39961 7.49961 2.39961C4.67961 2.39961 2.39961 4.67961 2.39961 7.49961ZM11.9996 7.49961C11.9996 9.98961 9.98961 11.9996 7.49961 11.9996C5.00961 11.9996 2.99961 9.98961 2.99961 7.49961C2.99961 5.00961 5.00961 2.99961 7.49961 2.99961C9.98961 2.99961 11.9996 5.00961 11.9996 7.49961Z"/>
</mask>
<path d="M3.39961 7.49961C3.39961 9.76732 5.23189 11.5996 7.49961 11.5996V13.5996C4.12733 13.5996 1.39961 10.8719 1.39961 7.49961L3.39961 7.49961ZM7.49961 11.5996C9.76732 11.5996 11.5996 9.76732 11.5996 7.49961H13.5996C13.5996 10.8719 10.8719 13.5996 7.49961 13.5996V11.5996ZM11.5996 7.49961C11.5996 5.23189 9.76732 3.39961 7.49961 3.39961L7.49961 1.39961C10.8719 1.39961 13.5996 4.12733 13.5996 7.49961H11.5996ZM7.49961 3.39961C5.23189 3.39961 3.39961 5.23189 3.39961 7.49961L1.39961 7.49961C1.39961 4.12733 4.12733 1.39961 7.49961 1.39961L7.49961 3.39961ZM12.9996 7.49961C12.9996 10.5419 10.5419 12.9996 7.49961 12.9996V10.9996C9.43732 10.9996 10.9996 9.43732 10.9996 7.49961H12.9996ZM7.49961 12.9996C4.45732 12.9996 1.99961 10.5419 1.99961 7.49961H3.99961C3.99961 9.43732 5.56189 10.9996 7.49961 10.9996V12.9996ZM1.99961 7.49961C1.99961 4.45732 4.45732 1.99961 7.49961 1.99961V3.99961C5.56189 3.99961 3.99961 5.56189 3.99961 7.49961H1.99961ZM7.49961 1.99961C10.5419 1.99961 12.9996 4.45732 12.9996 7.49961H10.9996C10.9996 5.56189 9.43732 3.99961 7.49961 3.99961V1.99961Z" fill="white" mask="url(#path-1-inside-1_2074_32999)"/>
<path d="M8.47443 8.26406C8.61623 8.18789 8.77853 8.14453 8.95138 8.14453H8.95197C8.96955 8.14453 8.97775 8.12344 8.96486 8.11172C8.7851 7.9504 8.57976 7.8201 8.35724 7.72617C8.3549 7.725 8.35255 7.72441 8.35021 7.72324C8.71408 7.45898 8.9508 7.02949 8.9508 6.54492C8.9508 5.74219 8.30158 5.0918 7.5006 5.0918C6.69962 5.0918 6.05099 5.74219 6.05099 6.54492C6.05099 7.02949 6.28771 7.45898 6.65216 7.72324C6.64982 7.72441 6.64748 7.725 6.64513 7.72617C6.38322 7.83691 6.14826 7.9957 5.94611 8.19844C5.74513 8.39905 5.58512 8.63688 5.47501 8.89863C5.36668 9.15496 5.30822 9.42959 5.30275 9.70781C5.30259 9.71407 5.30369 9.72029 5.30598 9.72611C5.30826 9.73193 5.31169 9.73724 5.31606 9.74172C5.32043 9.7462 5.32565 9.74975 5.33141 9.75218C5.33718 9.75461 5.34337 9.75586 5.34962 9.75586H5.7006C5.7258 9.75586 5.74689 9.73535 5.74748 9.71016C5.75919 9.25781 5.94025 8.83418 6.26076 8.51309C6.59181 8.18086 7.03244 7.99805 7.50119 7.99805C7.83341 7.99805 8.15216 8.09004 8.42697 8.2623C8.43403 8.26674 8.44213 8.26924 8.45046 8.26955C8.45879 8.26986 8.46706 8.26796 8.47443 8.26406ZM7.50119 7.55273C7.23283 7.55273 6.98029 7.44785 6.78986 7.25742C6.69616 7.16397 6.62189 7.0529 6.5713 6.93062C6.52072 6.80834 6.49483 6.67725 6.49513 6.54492C6.49513 6.27598 6.60001 6.02285 6.78986 5.83242C6.9797 5.64199 7.23224 5.53711 7.50119 5.53711C7.77013 5.53711 8.02208 5.64199 8.21251 5.83242C8.30621 5.92587 8.38049 6.03694 8.43107 6.15922C8.48165 6.28151 8.50754 6.41259 8.50724 6.54492C8.50724 6.81387 8.40236 7.06699 8.21251 7.25742C8.02208 7.44785 7.76955 7.55273 7.50119 7.55273ZM9.65626 8.94727H9.16408V8.45508C9.16408 8.4293 9.14298 8.4082 9.1172 8.4082H8.78908C8.7633 8.4082 8.7422 8.4293 8.7422 8.45508V8.94727H8.25001C8.22423 8.94727 8.20314 8.96836 8.20314 8.99414V9.32227C8.20314 9.34805 8.22423 9.36914 8.25001 9.36914H8.7422V9.86133C8.7422 9.88711 8.7633 9.9082 8.78908 9.9082H9.1172C9.14298 9.9082 9.16408 9.88711 9.16408 9.86133V9.36914H9.65626C9.68205 9.36914 9.70314 9.34805 9.70314 9.32227V8.99414C9.70314 8.96836 9.68205 8.94727 9.65626 8.94727Z" fill="white"/>
</svg>
