<svg width="1239" height="1159" viewBox="0 0 1239 1159" fill="none" xmlns="http://www.w3.org/2000/svg">
<g filter="url(#filter0_d_3495_1040)">
<circle cx="690" cy="526" r="284" fill="#B23F86"/>
</g>
<g filter="url(#filter1_f_3495_1040)">
<circle cx="579.5" cy="579.5" r="210.5" fill="#20F0BC"/>
</g>
<g filter="url(#filter2_f_3495_1040)">
<circle cx="805" cy="511" r="230" fill="#D03491"/>
</g>
<g filter="url(#filter3_d_3495_1040)">
<circle cx="690" cy="526" r="163" fill="#B23F86"/>
</g>
<circle cx="690" cy="526" r="166.5" stroke="#20F0BC" stroke-width="7"/>
<path d="M572.497 523.576C569.649 523.576 567.057 522.984 564.721 521.8C562.417 520.584 560.577 518.792 559.201 516.424C557.857 514.024 557.185 511.064 557.185 507.544C557.185 504.952 557.585 502.648 558.385 500.632C559.185 498.584 560.289 496.856 561.697 495.448C563.105 494.04 564.721 492.968 566.545 492.232C568.401 491.496 570.369 491.128 572.449 491.128C574.721 491.128 576.673 491.528 578.305 492.328C579.937 493.128 581.265 494.088 582.289 495.208L578.593 499.48C577.825 498.776 576.977 498.232 576.049 497.848C575.153 497.432 574.033 497.224 572.689 497.224C571.089 497.224 569.665 497.64 568.417 498.472C567.169 499.272 566.193 500.424 565.489 501.928C564.785 503.432 564.433 505.224 564.433 507.304C564.433 509.448 564.753 511.288 565.393 512.824C566.065 514.328 567.041 515.48 568.321 516.28C569.633 517.08 571.265 517.48 573.217 517.48C573.857 517.48 574.481 517.4 575.089 517.24C575.697 517.08 576.193 516.84 576.577 516.52V511.144H571.393V505.384H582.817V519.784C581.761 520.84 580.321 521.736 578.497 522.472C576.705 523.208 574.705 523.576 572.497 523.576ZM599.362 523.576C597.09 523.576 595.042 523.08 593.218 522.088C591.394 521.096 589.954 519.672 588.898 517.816C587.842 515.96 587.314 513.72 587.314 511.096C587.314 508.504 587.842 506.28 588.898 504.424C589.986 502.568 591.394 501.144 593.122 500.152C594.85 499.128 596.658 498.616 598.546 498.616C600.818 498.616 602.706 499.128 604.21 500.152C605.714 501.144 606.834 502.504 607.57 504.232C608.306 505.96 608.674 507.896 608.674 510.04C608.674 510.648 608.642 511.256 608.578 511.864C608.514 512.44 608.45 512.904 608.386 513.256H592.786L592.69 508.36H602.626C602.626 507.112 602.322 506.088 601.714 505.288C601.106 504.456 600.098 504.04 598.69 504.04C597.922 504.04 597.17 504.248 596.434 504.664C595.698 505.08 595.09 505.8 594.61 506.824C594.13 507.848 593.906 509.272 593.938 511.096C593.97 512.888 594.29 514.296 594.898 515.32C595.538 516.344 596.338 517.08 597.298 517.528C598.258 517.944 599.266 518.152 600.322 518.152C601.25 518.152 602.13 518.024 602.962 517.768C603.826 517.48 604.674 517.096 605.506 516.616L607.81 520.936C606.626 521.768 605.282 522.424 603.778 522.904C602.274 523.352 600.802 523.576 599.362 523.576ZM622.249 523.528C619.305 523.528 617.193 522.68 615.913 520.984C614.633 519.256 613.993 517.032 613.993 514.312V504.712H610.777V499.48L614.425 499.192L615.241 491.896H621.097V499.192H626.809V504.712H621.097V514.216C621.097 515.56 621.369 516.536 621.913 517.144C622.489 517.72 623.241 518.008 624.169 518.008C624.553 518.008 624.937 517.976 625.321 517.912C625.705 517.848 626.073 517.752 626.425 517.624L627.577 522.568C626.969 522.824 626.201 523.048 625.273 523.24C624.377 523.432 623.369 523.528 622.249 523.528ZM650.233 523.528C647.289 523.528 645.177 522.68 643.897 520.984C642.617 519.256 641.977 517.032 641.977 514.312V504.712H638.761V499.48L642.409 499.192L643.225 491.896H649.081V499.192H654.793V504.712H649.081V514.216C649.081 515.56 649.353 516.536 649.897 517.144C650.473 517.72 651.225 518.008 652.153 518.008C652.537 518.008 652.921 517.976 653.305 517.912C653.689 517.848 654.057 517.752 654.409 517.624L655.561 522.568C654.953 522.824 654.185 523.048 653.257 523.24C652.361 523.432 651.353 523.528 650.233 523.528ZM659.44 523V489.352H666.496V497.608L666.16 501.88C667.056 501.08 668.096 500.344 669.28 499.672C670.496 498.968 671.904 498.616 673.504 498.616C676.128 498.616 678.016 499.48 679.168 501.208C680.32 502.904 680.896 505.24 680.896 508.216V523H673.84V509.128C673.84 507.4 673.6 506.216 673.12 505.576C672.672 504.936 671.936 504.616 670.912 504.616C670.016 504.616 669.248 504.824 668.608 505.24C667.968 505.624 667.264 506.184 666.496 506.92V523H659.44ZM697.518 523.576C695.246 523.576 693.198 523.08 691.374 522.088C689.55 521.096 688.11 519.672 687.054 517.816C685.998 515.96 685.47 513.72 685.47 511.096C685.47 508.504 685.998 506.28 687.054 504.424C688.142 502.568 689.55 501.144 691.278 500.152C693.006 499.128 694.814 498.616 696.702 498.616C698.974 498.616 700.862 499.128 702.366 500.152C703.87 501.144 704.99 502.504 705.726 504.232C706.462 505.96 706.83 507.896 706.83 510.04C706.83 510.648 706.798 511.256 706.734 511.864C706.67 512.44 706.606 512.904 706.542 513.256H690.942L690.846 508.36H700.782C700.782 507.112 700.478 506.088 699.87 505.288C699.262 504.456 698.254 504.04 696.846 504.04C696.078 504.04 695.326 504.248 694.59 504.664C693.854 505.08 693.246 505.8 692.766 506.824C692.286 507.848 692.062 509.272 692.094 511.096C692.126 512.888 692.446 514.296 693.054 515.32C693.694 516.344 694.494 517.08 695.454 517.528C696.414 517.944 697.422 518.152 698.478 518.152C699.406 518.152 700.286 518.024 701.118 517.768C701.982 517.48 702.83 517.096 703.662 516.616L705.966 520.936C704.782 521.768 703.438 522.424 701.934 522.904C700.43 523.352 698.958 523.576 697.518 523.576ZM721.315 523V499.192H727.075L727.555 503.368H727.747C728.611 501.768 729.635 500.584 730.819 499.816C732.035 499.016 733.267 498.616 734.515 498.616C735.187 498.616 735.747 498.664 736.195 498.76C736.643 498.824 737.027 498.936 737.347 499.096L736.003 505.096C735.619 505 735.251 504.936 734.899 504.904C734.547 504.84 734.115 504.808 733.603 504.808C732.707 504.808 731.763 505.128 730.771 505.768C729.811 506.408 729.011 507.544 728.371 509.176V523H721.315ZM740.44 523V499.192H747.496V523H740.44ZM743.944 495.688C742.76 495.688 741.8 495.352 741.064 494.68C740.328 494.008 739.96 493.112 739.96 491.992C739.96 490.872 740.328 489.976 741.064 489.304C741.8 488.632 742.76 488.296 743.944 488.296C745.128 488.296 746.088 488.632 746.824 489.304C747.56 489.976 747.928 490.872 747.928 491.992C747.928 493.112 747.56 494.008 746.824 494.68C746.088 495.352 745.128 495.688 743.944 495.688ZM762.202 533.128C760.346 533.128 758.65 532.904 757.114 532.456C755.61 532.04 754.41 531.384 753.514 530.488C752.65 529.624 752.218 528.488 752.218 527.08C752.218 526.088 752.506 525.192 753.082 524.392C753.69 523.592 754.538 522.888 755.626 522.28V522.088C755.018 521.672 754.49 521.144 754.042 520.504C753.626 519.832 753.418 519.016 753.418 518.056C753.418 517.192 753.674 516.376 754.186 515.608C754.698 514.808 755.338 514.136 756.106 513.592V513.4C755.242 512.824 754.49 511.992 753.85 510.904C753.21 509.816 752.89 508.584 752.89 507.208C752.89 505.32 753.354 503.736 754.282 502.456C755.21 501.176 756.426 500.216 757.93 499.576C759.434 498.936 761.034 498.616 762.73 498.616C763.402 498.616 764.042 498.664 764.65 498.76C765.29 498.856 765.882 499 766.426 499.192H775.114V504.328H771.13V504.52C771.45 504.936 771.69 505.4 771.85 505.912C772.01 506.392 772.09 506.936 772.09 507.544C772.09 509.336 771.674 510.824 770.842 512.008C770.01 513.16 768.874 514.024 767.434 514.6C766.026 515.176 764.458 515.464 762.73 515.464C762.314 515.464 761.866 515.432 761.386 515.368C760.906 515.272 760.394 515.144 759.85 514.984C759.562 515.24 759.338 515.496 759.178 515.752C759.05 516.008 758.986 516.344 758.986 516.76C758.986 517.336 759.258 517.784 759.802 518.104C760.346 518.392 761.274 518.536 762.586 518.536H766.426C769.37 518.536 771.61 519.016 773.146 519.976C774.714 520.904 775.498 522.44 775.498 524.584C775.498 526.216 774.954 527.672 773.866 528.952C772.778 530.264 771.242 531.288 769.258 532.024C767.274 532.76 764.922 533.128 762.202 533.128ZM762.73 511.192C763.37 511.192 763.93 511.048 764.41 510.76C764.89 510.44 765.274 509.992 765.562 509.416C765.85 508.84 765.994 508.104 765.994 507.208C765.994 505.928 765.674 504.968 765.034 504.328C764.426 503.688 763.658 503.368 762.73 503.368C761.802 503.368 761.018 503.688 760.378 504.328C759.77 504.968 759.466 505.928 759.466 507.208C759.466 508.104 759.61 508.84 759.898 509.416C760.218 509.992 760.618 510.44 761.098 510.76C761.578 511.048 762.122 511.192 762.73 511.192ZM763.306 528.712C764.362 528.712 765.29 528.584 766.09 528.328C766.922 528.072 767.578 527.72 768.058 527.272C768.538 526.824 768.778 526.328 768.778 525.784C768.778 525.016 768.458 524.504 767.818 524.248C767.178 524.024 766.282 523.912 765.13 523.912H762.682C761.85 523.912 761.178 523.88 760.666 523.816C760.186 523.784 759.738 523.72 759.322 523.624C758.874 524.008 758.538 524.376 758.314 524.728C758.122 525.112 758.026 525.528 758.026 525.976C758.026 526.872 758.506 527.544 759.466 527.992C760.458 528.472 761.738 528.712 763.306 528.712ZM779.347 523V489.352H786.403V497.608L786.067 501.88C786.963 501.08 788.003 500.344 789.187 499.672C790.403 498.968 791.811 498.616 793.411 498.616C796.035 498.616 797.923 499.48 799.075 501.208C800.227 502.904 800.803 505.24 800.803 508.216V523H793.747V509.128C793.747 507.4 793.507 506.216 793.027 505.576C792.579 504.936 791.843 504.616 790.819 504.616C789.923 504.616 789.155 504.824 788.515 505.24C787.875 505.624 787.171 506.184 786.403 506.92V523H779.347ZM815.936 523.528C812.992 523.528 810.88 522.68 809.6 520.984C808.32 519.256 807.68 517.032 807.68 514.312V504.712H804.464V499.48L808.112 499.192L808.928 491.896H814.784V499.192H820.496V504.712H814.784V514.216C814.784 515.56 815.056 516.536 815.6 517.144C816.176 517.72 816.928 518.008 817.856 518.008C818.24 518.008 818.624 517.976 819.008 517.912C819.392 517.848 819.76 517.752 820.112 517.624L821.264 522.568C820.656 522.824 819.888 523.048 818.96 523.24C818.064 523.432 817.056 523.528 815.936 523.528ZM583.844 571V539.704H590.9V571H583.844ZM597.706 571V547.192H603.466L603.946 550.216H604.138C605.13 549.224 606.25 548.376 607.498 547.672C608.746 546.968 610.17 546.616 611.77 546.616C614.394 546.616 616.282 547.48 617.434 549.208C618.586 550.904 619.162 553.24 619.162 556.216V571H612.106V557.128C612.106 555.4 611.866 554.216 611.386 553.576C610.938 552.936 610.202 552.616 609.178 552.616C608.282 552.616 607.514 552.824 606.874 553.24C606.234 553.624 605.53 554.184 604.762 554.92V571H597.706ZM626.375 571V545.944C626.375 544.248 626.647 542.712 627.191 541.336C627.767 539.96 628.695 538.856 629.975 538.024C631.287 537.192 633.015 536.776 635.159 536.776C636.151 536.776 637.063 536.872 637.895 537.064C638.727 537.256 639.399 537.448 639.911 537.64L638.519 542.68C637.719 542.456 636.935 542.344 636.167 542.344C635.303 542.344 634.631 542.616 634.151 543.16C633.671 543.672 633.431 544.536 633.431 545.752V571H626.375ZM622.871 552.712V547.48L626.855 547.192H637.703V552.712H622.871ZM648.014 571.528C646.414 571.528 645.134 571.208 644.174 570.568C643.246 569.896 642.574 568.968 642.158 567.784C641.742 566.568 641.534 565.16 641.534 563.56V537.4H648.59V563.848C648.59 564.616 648.718 565.144 648.974 565.432C649.262 565.688 649.566 565.816 649.886 565.816C650.014 565.816 650.126 565.816 650.222 565.816C650.35 565.784 650.51 565.752 650.702 565.72L651.566 570.952C651.182 571.112 650.686 571.24 650.078 571.336C649.502 571.464 648.814 571.528 648.014 571.528ZM662.42 571.576C659.828 571.576 657.94 570.728 656.756 569.032C655.604 567.304 655.028 564.952 655.028 561.976V547.192H662.084V561.064C662.084 562.792 662.324 563.976 662.804 564.616C663.284 565.256 664.036 565.576 665.06 565.576C665.924 565.576 666.676 565.368 667.316 564.952C667.956 564.536 668.612 563.864 669.284 562.936V547.192H676.34V571H670.58L670.052 567.688H669.908C668.916 568.872 667.828 569.816 666.644 570.52C665.46 571.224 664.052 571.576 662.42 571.576ZM693.206 571.576C690.934 571.576 688.886 571.08 687.062 570.088C685.238 569.096 683.798 567.672 682.742 565.816C681.686 563.96 681.158 561.72 681.158 559.096C681.158 556.504 681.686 554.28 682.742 552.424C683.83 550.568 685.238 549.144 686.966 548.152C688.694 547.128 690.502 546.616 692.39 546.616C694.662 546.616 696.55 547.128 698.054 548.152C699.558 549.144 700.678 550.504 701.414 552.232C702.15 553.96 702.518 555.896 702.518 558.04C702.518 558.648 702.486 559.256 702.422 559.864C702.358 560.44 702.294 560.904 702.23 561.256H686.63L686.534 556.36H696.47C696.47 555.112 696.166 554.088 695.558 553.288C694.95 552.456 693.942 552.04 692.534 552.04C691.766 552.04 691.014 552.248 690.278 552.664C689.542 553.08 688.934 553.8 688.454 554.824C687.974 555.848 687.75 557.272 687.782 559.096C687.814 560.888 688.134 562.296 688.742 563.32C689.382 564.344 690.182 565.08 691.142 565.528C692.102 565.944 693.11 566.152 694.166 566.152C695.094 566.152 695.974 566.024 696.806 565.768C697.67 565.48 698.518 565.096 699.35 564.616L701.654 568.936C700.47 569.768 699.126 570.424 697.622 570.904C696.118 571.352 694.646 571.576 693.206 571.576ZM707.393 571V547.192H713.153L713.633 550.216H713.825C714.817 549.224 715.937 548.376 717.185 547.672C718.433 546.968 719.857 546.616 721.457 546.616C724.081 546.616 725.969 547.48 727.121 549.208C728.273 550.904 728.849 553.24 728.849 556.216V571H721.793V557.128C721.793 555.4 721.553 554.216 721.073 553.576C720.625 552.936 719.889 552.616 718.865 552.616C717.969 552.616 717.201 552.824 716.561 553.24C715.921 553.624 715.217 554.184 714.449 554.92V571H707.393ZM745.374 571.576C743.134 571.576 741.102 571.08 739.278 570.088C737.486 569.096 736.062 567.672 735.006 565.816C733.982 563.96 733.47 561.72 733.47 559.096C733.47 556.472 734.046 554.232 735.198 552.376C736.35 550.52 737.87 549.096 739.758 548.104C741.646 547.112 743.678 546.616 745.854 546.616C747.326 546.616 748.638 546.856 749.79 547.336C750.974 547.784 751.982 548.392 752.814 549.16L749.502 553.528C749.086 553.176 748.606 552.888 748.062 552.664C747.55 552.44 746.958 552.328 746.286 552.328C745.166 552.328 744.19 552.6 743.358 553.144C742.526 553.688 741.87 554.472 741.39 555.496C740.91 556.52 740.67 557.72 740.67 559.096C740.67 560.472 740.91 561.672 741.39 562.696C741.87 563.72 742.51 564.504 743.31 565.048C744.142 565.592 745.07 565.864 746.094 565.864C746.894 565.864 747.646 565.72 748.35 565.432C749.054 565.144 749.71 564.776 750.318 564.328L753.102 568.648C752.11 569.544 750.942 570.264 749.598 570.808C748.254 571.32 746.846 571.576 745.374 571.576ZM766.659 571.576C764.387 571.576 762.339 571.08 760.515 570.088C758.691 569.096 757.251 567.672 756.195 565.816C755.139 563.96 754.611 561.72 754.611 559.096C754.611 556.504 755.139 554.28 756.195 552.424C757.283 550.568 758.691 549.144 760.419 548.152C762.147 547.128 763.955 546.616 765.843 546.616C768.115 546.616 770.003 547.128 771.507 548.152C773.011 549.144 774.131 550.504 774.867 552.232C775.603 553.96 775.971 555.896 775.971 558.04C775.971 558.648 775.939 559.256 775.875 559.864C775.811 560.44 775.747 560.904 775.683 561.256H760.083L759.987 556.36H769.923C769.923 555.112 769.619 554.088 769.011 553.288C768.403 552.456 767.395 552.04 765.987 552.04C765.219 552.04 764.467 552.248 763.731 552.664C762.995 553.08 762.387 553.8 761.907 554.824C761.427 555.848 761.203 557.272 761.235 559.096C761.267 560.888 761.587 562.296 762.195 563.32C762.835 564.344 763.635 565.08 764.595 565.528C765.555 565.944 766.563 566.152 767.619 566.152C768.547 566.152 769.427 566.024 770.259 565.768C771.123 565.48 771.971 565.096 772.803 564.616L775.107 568.936C773.923 569.768 772.579 570.424 771.075 570.904C769.571 571.352 768.099 571.576 766.659 571.576ZM780.847 571V547.192H786.607L787.087 551.368H787.279C788.143 549.768 789.167 548.584 790.351 547.816C791.567 547.016 792.799 546.616 794.047 546.616C794.719 546.616 795.279 546.664 795.727 546.76C796.175 546.824 796.559 546.936 796.879 547.096L795.535 553.096C795.151 553 794.783 552.936 794.431 552.904C794.079 552.84 793.647 552.808 793.135 552.808C792.239 552.808 791.295 553.128 790.303 553.768C789.343 554.408 788.543 555.544 787.903 557.176V571H780.847Z" fill="white"/>
<defs>
<filter id="filter0_d_3495_1040" x="326" y="162" width="728" height="728" filterUnits="userSpaceOnUse" color-interpolation-filters="sRGB">
<feFlood flood-opacity="0" result="BackgroundImageFix"/>
<feColorMatrix in="SourceAlpha" type="matrix" values="0 0 0 0 0 0 0 0 0 0 0 0 0 0 0 0 0 0 127 0" result="hardAlpha"/>
<feOffset/>
<feGaussianBlur stdDeviation="40"/>
<feComposite in2="hardAlpha" operator="out"/>
<feColorMatrix type="matrix" values="0 0 0 0 0.784314 0 0 0 0 0.231373 0 0 0 0 0.576471 0 0 0 1 0"/>
<feBlend mode="normal" in2="BackgroundImageFix" result="effect1_dropShadow_3495_1040"/>
<feBlend mode="normal" in="SourceGraphic" in2="effect1_dropShadow_3495_1040" result="shape"/>
</filter>
<filter id="filter1_f_3495_1040" x="0" y="0" width="1159" height="1159" filterUnits="userSpaceOnUse" color-interpolation-filters="sRGB">
<feFlood flood-opacity="0" result="BackgroundImageFix"/>
<feBlend mode="normal" in="SourceGraphic" in2="BackgroundImageFix" result="shape"/>
<feGaussianBlur stdDeviation="184.5" result="effect1_foregroundBlur_3495_1040"/>
</filter>
<filter id="filter2_f_3495_1040" x="371" y="77" width="868" height="868" filterUnits="userSpaceOnUse" color-interpolation-filters="sRGB">
<feFlood flood-opacity="0" result="BackgroundImageFix"/>
<feBlend mode="normal" in="SourceGraphic" in2="BackgroundImageFix" result="shape"/>
<feGaussianBlur stdDeviation="102" result="effect1_foregroundBlur_3495_1040"/>
</filter>
<filter id="filter3_d_3495_1040" x="417" y="253" width="566" height="566" filterUnits="userSpaceOnUse" color-interpolation-filters="sRGB">
<feFlood flood-opacity="0" result="BackgroundImageFix"/>
<feColorMatrix in="SourceAlpha" type="matrix" values="0 0 0 0 0 0 0 0 0 0 0 0 0 0 0 0 0 0 127 0" result="hardAlpha"/>
<feOffset dx="10" dy="10"/>
<feGaussianBlur stdDeviation="60"/>
<feComposite in2="hardAlpha" operator="out"/>
<feColorMatrix type="matrix" values="0 0 0 0 0 0 0 0 0 0 0 0 0 0 0 0 0 0 0.5 0"/>
<feBlend mode="normal" in2="BackgroundImageFix" result="effect1_dropShadow_3495_1040"/>
<feBlend mode="normal" in="SourceGraphic" in2="effect1_dropShadow_3495_1040" result="shape"/>
</filter>
</defs>
</svg>
