<svg width="46" height="46" viewBox="0 0 46 46" fill="none" xmlns="http://www.w3.org/2000/svg">
<circle cx="23" cy="23" r="22" fill="#ABF4E7" stroke="#ED75C0" stroke-width="2"/>
<circle cx="23" cy="23" r="17" fill="#C83B93"/>
<g clip-path="url(#clip0_4067_372)">
<path d="M23 17H21.5V24.5H27.5V23H23V17Z" fill="white"/>
<path d="M23 11C18.5 11 14.6 13.4 12.65 17.15L11 15.5V21.5H17L14.75 19.25C16.25 16.25 19.4 14 23 14C27.95 14 32 18.05 32 23C32 27.95 27.95 32 23 32C20.3 32 17.9 30.8 16.25 28.85L14 30.8C16.1 33.35 19.4 35 23 35C29.6 35 35 29.6 35 23C35 16.4 29.6 11 23 11Z" fill="white"/>
</g>
<defs>
<clipPath id="clip0_4067_372">
<rect width="24" height="24" fill="white" transform="translate(11 11)"/>
</clipPath>
</defs>
</svg>
