<svg width="46" height="46" viewBox="0 0 46 46" fill="none" xmlns="http://www.w3.org/2000/svg">
<circle cx="23" cy="23" r="22" fill="#ABF4E7" stroke="#ED75C0" stroke-width="2"/>
<circle cx="23" cy="23" r="17" fill="#C83B93"/>
<path d="M20.604 15.8848C21.2604 15.7912 21.8004 16.3384 21.8004 17.0008V24.2008H29.0004C29.6628 24.2008 30.21 24.7408 30.1164 25.3972C29.8089 27.4956 28.7192 29.4002 27.066 30.7287C25.4128 32.0572 23.3184 32.7114 21.2029 32.56C19.0875 32.4086 17.1075 31.4628 15.6604 29.9124C14.2132 28.362 13.4059 26.3216 13.4004 24.2008C13.4005 22.1801 14.1288 20.2271 15.4518 18.6998C16.7749 17.1725 18.604 16.1731 20.604 15.8848ZM31.4748 23.0008C32.0724 23.0008 32.5872 22.5616 32.5992 21.964L32.6004 21.8008C32.6004 20.6839 32.3778 19.5782 31.9454 18.5485C31.513 17.5187 30.8796 16.5855 30.0822 15.8034C29.2849 15.0214 28.3396 14.4062 27.3016 13.9938C26.2636 13.5815 25.1539 13.3803 24.0372 13.402C23.4396 13.414 23.0004 13.93 23.0004 14.5264V21.8008C23.0004 22.119 23.1268 22.4243 23.3519 22.6493C23.5769 22.8743 23.8821 23.0008 24.2004 23.0008H31.4748Z" fill="white"/>
</svg>
