<svg width="46" height="46" viewBox="0 0 46 46" fill="none" xmlns="http://www.w3.org/2000/svg">
<circle cx="23" cy="23" r="22" fill="#ABF4E7" stroke="#ED75C0" stroke-width="2"/>
<circle cx="23" cy="23" r="17" fill="#C83B93"/>
<path d="M23.3 17.93L20.88 15.5H26.5V19H28V14H20.88L23.3 11.57L22.24 10.5L18 14.75L22.24 19L23.3 17.93ZM23 23C22.4067 23 21.8266 23.1759 21.3333 23.5056C20.8399 23.8352 20.4554 24.3038 20.2284 24.8519C20.0013 25.4001 19.9419 26.0033 20.0576 26.5853C20.1734 27.1672 20.4591 27.7018 20.8787 28.1213C21.2982 28.5409 21.8328 28.8266 22.4147 28.9424C22.9967 29.0581 23.5999 28.9987 24.1481 28.7716C24.6962 28.5446 25.1648 28.1601 25.4944 27.6667C25.8241 27.1734 26 26.5933 26 26C26 25.2044 25.6839 24.4413 25.1213 23.8787C24.5587 23.3161 23.7956 23 23 23ZM14 20V32H32V20M30 28C29.4696 28 28.9609 28.2107 28.5858 28.5858C28.2107 28.9609 28 29.4696 28 30H18C18 29.4696 17.7893 28.9609 17.4142 28.5858C17.0391 28.2107 16.5304 28 16 28V24C16.5304 24 17.0391 23.7893 17.4142 23.4142C17.7893 23.0391 18 22.5304 18 22H28C28 22.5304 28.2107 23.0391 28.5858 23.4142C28.9609 23.7893 29.4696 24 30 24V28Z" fill="white"/>
</svg>
