<svg width="46" height="48" viewBox="0 0 46 48" fill="none" xmlns="http://www.w3.org/2000/svg">
<circle cx="23" cy="23" r="22" fill="#ABF4E7" stroke="#ED75C0" stroke-width="2"/>
<g filter="url(#filter0_d_4067_371)">
<circle cx="23" cy="23" r="17" fill="#C83B93"/>
<path d="M23 26C23.7956 26 24.5587 25.6839 25.1213 25.1213C25.6839 24.5587 26 23.7956 26 23C26 22.2044 25.6839 21.4413 25.1213 20.8787C24.5587 20.3161 23.7956 20 23 20C22.2044 20 21.4413 20.3161 20.8787 20.8787C20.3161 21.4413 20 22.2044 20 23C20 23.7956 20.3161 24.5587 20.8787 25.1213C21.4413 25.6839 22.2044 26 23 26Z" fill="white"/>
<path fill-rule="evenodd" clip-rule="evenodd" d="M23 14C23.2652 14 23.5196 14.1054 23.7071 14.2929C23.8946 14.4804 24 14.7348 24 15V16.07C25.496 16.2862 26.8818 16.9806 27.9506 18.0494C29.0194 19.1182 29.7138 20.504 29.93 22H31C31.2652 22 31.5196 22.1054 31.7071 22.2929C31.8946 22.4804 32 22.7348 32 23C32 23.2652 31.8946 23.5196 31.7071 23.7071C31.5196 23.8946 31.2652 24 31 24H29.93C29.7138 25.496 29.0194 26.8818 27.9506 27.9506C26.8818 29.0194 25.496 29.7138 24 29.93V31C24 31.2652 23.8946 31.5196 23.7071 31.7071C23.5196 31.8946 23.2652 32 23 32C22.7348 32 22.4804 31.8946 22.2929 31.7071C22.1054 31.5196 22 31.2652 22 31V29.93C20.504 29.7138 19.1182 29.0194 18.0494 27.9506C16.9806 26.8818 16.2862 25.496 16.07 24H15C14.7348 24 14.4804 23.8946 14.2929 23.7071C14.1054 23.5196 14 23.2652 14 23C14 22.7348 14.1054 22.4804 14.2929 22.2929C14.4804 22.1054 14.7348 22 15 22H16.07C16.2864 20.5041 16.9808 19.1183 18.0496 18.0496C19.1183 16.9808 20.5041 16.2864 22 16.07V15C22 14.7348 22.1054 14.4804 22.2929 14.2929C22.4804 14.1054 22.7348 14 23 14ZM18 23C18 21.6739 18.5268 20.4021 19.4645 19.4645C20.4021 18.5268 21.6739 18 23 18C24.3261 18 25.5979 18.5268 26.5355 19.4645C27.4732 20.4021 28 21.6739 28 23C28 24.3261 27.4732 25.5979 26.5355 26.5355C25.5979 27.4732 24.3261 28 23 28C21.6739 28 20.4021 27.4732 19.4645 26.5355C18.5268 25.5979 18 24.3261 18 23Z" fill="white"/>
</g>
<defs>
<filter id="filter0_d_4067_371" x="2" y="6" width="42" height="42" filterUnits="userSpaceOnUse" color-interpolation-filters="sRGB">
<feFlood flood-opacity="0" result="BackgroundImageFix"/>
<feColorMatrix in="SourceAlpha" type="matrix" values="0 0 0 0 0 0 0 0 0 0 0 0 0 0 0 0 0 0 127 0" result="hardAlpha"/>
<feOffset dy="4"/>
<feGaussianBlur stdDeviation="2"/>
<feComposite in2="hardAlpha" operator="out"/>
<feColorMatrix type="matrix" values="0 0 0 0 0 0 0 0 0 0 0 0 0 0 0 0 0 0 0.25 0"/>
<feBlend mode="normal" in2="BackgroundImageFix" result="effect1_dropShadow_4067_371"/>
<feBlend mode="normal" in="SourceGraphic" in2="effect1_dropShadow_4067_371" result="shape"/>
</filter>
</defs>
</svg>
