<svg width="46" height="46" viewBox="0 0 46 46" fill="none" xmlns="http://www.w3.org/2000/svg">
<circle cx="23" cy="23" r="22" fill="#ABF4E7" stroke="#ED75C0" stroke-width="2"/>
<circle cx="23" cy="23" r="17" fill="#C83B93"/>
<path d="M25.6584 17.2609C25.6584 16.552 25.3768 15.8721 24.8755 15.3708C24.3742 14.8695 23.6943 14.5879 22.9854 14.5879C22.2765 14.5879 21.5966 14.8695 21.0953 15.3708C20.594 15.8721 20.3124 16.552 20.3124 17.2609C20.3124 17.9698 20.594 18.6497 21.0953 19.151C21.5966 19.6523 22.2765 19.9339 22.9854 19.9339C23.6943 19.9339 24.3742 19.6523 24.8755 19.151C25.3768 18.6497 25.6584 17.9698 25.6584 17.2609ZM14.0184 25.4005H17.6064V21.8173L17.616 21.6013C17.6472 21.2449 17.7576 20.9113 17.928 20.6173H14.6196L14.4792 20.6257C14.1873 20.6601 13.9182 20.8004 13.7228 21.02C13.5275 21.2397 13.4196 21.5234 13.4196 21.8173V24.8005C13.4196 24.9596 13.4828 25.1122 13.5953 25.2248C13.7078 25.3373 13.8593 25.4005 14.0184 25.4005ZM32.5884 24.8005C32.5884 24.9596 32.5252 25.1122 32.4127 25.2248C32.3001 25.3373 32.1475 25.4005 31.9884 25.4005H28.3692V21.8173L28.362 21.6385C28.3358 21.2787 28.2283 20.9295 28.0476 20.6173H31.3884C31.6825 20.6174 31.9663 20.7254 32.186 20.921C32.4057 21.1166 32.5459 21.386 32.58 21.6781L32.5884 21.8173V24.8005ZM27.1608 21.6781C27.1267 21.3858 26.9863 21.1162 26.7664 20.9206C26.5464 20.725 26.2623 20.6171 25.968 20.6173H20.0064L19.866 20.6257C19.5741 20.6601 19.305 20.8004 19.1096 21.02C18.9143 21.2397 18.8064 21.5234 18.8064 21.8173V25.4005H27.168V21.8173L27.1608 21.6781ZM28.9704 15.3421C29.5792 15.3421 30.1631 15.5839 30.5936 16.0145C31.0241 16.445 31.266 17.0289 31.266 17.6377C31.266 18.2465 31.0241 18.8304 30.5936 19.2609C30.1631 19.6914 29.5792 19.9333 28.9704 19.9333C28.3614 19.9333 27.7774 19.6914 27.3467 19.2607C26.9161 18.8301 26.6742 18.2461 26.6742 17.6371C26.6742 17.0281 26.9161 16.4441 27.3467 16.0134C27.7774 15.5828 28.3614 15.3421 28.9704 15.3421ZM19.3152 17.6365C19.3152 17.0277 19.0733 16.4438 18.6428 16.0133C18.2123 15.5827 17.6284 15.3409 17.0196 15.3409C16.4108 15.3409 15.8269 15.5827 15.3964 16.0133C14.9658 16.4438 14.724 17.0277 14.724 17.6365C14.724 18.2453 14.9658 18.8292 15.3964 19.2597C15.8269 19.6902 16.4108 19.9321 17.0196 19.9321C17.6284 19.9321 18.2123 19.6902 18.6428 19.2597C19.0733 18.8292 19.3152 18.2453 19.3152 17.6365ZM14.0004 26.6005C13.8413 26.6005 13.6886 26.6637 13.5761 26.7762C13.4636 26.8887 13.4004 27.0414 13.4004 27.2005V28.4005C13.4004 29.1961 13.7165 29.9592 14.2791 30.5218C14.8417 31.0844 15.6047 31.4005 16.4004 31.4005H29.6004C30.396 31.4005 31.1591 31.0844 31.7217 30.5218C32.2843 29.9592 32.6004 29.1961 32.6004 28.4005V27.2005C32.6004 27.0414 32.5372 26.8887 32.4247 26.7762C32.3121 26.6637 32.1595 26.6005 32.0004 26.6005H14.0004Z" fill="white"/>
</svg>
